:SAMPLES-PER-SECOND 30
:FULLY-SPECIFIED
:DEGREES
155
root  -73.0689 40.6486 -2.86201 -54.2864 -87.3603 45.051
RightUpLeg  -11.8537 -22.3895 -10.8072
RightLeg  53.2332 2.59471 3.38799
RightFoot  0.808696 -1.54304 14.4237
RightToes  1.16414e-010 0 -3.6325e-017
Spine  13.1489 0.960672 -6.62887
Spine1  5.17503 2.05027 -7.55151
HEad  -22.2717 12.5967 7.89549
LeftShoulder1  8.16674 -13.2722 -42.2812
LeftArm  -47.6496 21.7798 -22.3139
LeftForeArm  -13.1167 -39.946 -10.1424
LeftHand  -0.244104 0.0205437 5.32207
RightShoulder  5.70411 9.40223 38.1485
RightArm  -7.16987 -19.8294 38.4033
RightForeArm  -6.26187 30.7891 7.07511
RightHand  -2.92937 8.37414 -24.6626
LeftUpLeg  -4.85241 6.45344 -2.70973
LeftLeg  10.368 11.1589 -3.48195
LeftFoot  2.57209 -1.05796 8.52693
LeftToes  -6.45774e-011 3.08606e-011 -5.1752e-012
156
root  -73.5841 40.8974 -2.84484 -34.2014 -87.4056 24.6056
RightUpLeg  -10.8668 -21.0679 -10.9071
RightLeg  48.8309 -1.07856 -1.63195
RightFoot  -1.69315 -0.838949 9.7574
RightToes  1.16414e-010 0 -3.6325e-017
Spine  13.0897 0.608568 -6.81707
Spine1  5.7547 1.23049 -5.60576
HEad  -22.47 8.71696 7.90117
LeftShoulder1  8.35919 -13.4213 -42.9386
LeftArm  -48.8552 21.805 -22.7057
LeftForeArm  -12.4938 -40.107 -10.1632
LeftHand  -0.244104 0.0205437 5.32207
RightShoulder  5.55361 9.25034 37.5152
RightArm  -7.17636 -21.154 39.6097
RightForeArm  -5.81934 28.9349 6.58292
RightHand  -3.15057 9.03353 -25.2772
LeftUpLeg  -2.5656 4.99428 -1.72913
LeftLeg  8.25481 11.8887 -3.96874
LeftFoot  2.57406 -0.943173 7.58623
LeftToes  -6.45774e-011 3.08606e-011 -5.1752e-012
157
root  -74.0701 40.9998 -2.84979 -17.3302 -86.756 7.34715
RightUpLeg  -8.65654 -18.7509 -10.9948
RightLeg  41.9824 -4.69569 -4.78917
RightFoot  -5.00501 -0.414619 6.9246
RightToes  1.16414e-010 0 -3.6325e-017
Spine  13.1601 0.297842 -7.34911
Spine1  6.2863 0.285423 -3.44826
HEad  -23.0574 3.22995 7.73763
LeftShoulder1  8.50306 -13.5993 -43.2417
LeftArm  -49.6668 22.1115 -24.173
LeftForeArm  -12.0777 -40.1412 -10.1512
LeftHand  -0.244104 0.0205437 5.32207
RightShoulder  5.26989 8.99883 36.1649
RightArm  -8.31442 -22.8592 41.484
RightForeArm  -6.98893 27.1287 6.20331
RightHand  -3.5368 10.0258 -26.501
LeftUpLeg  -1.08581 4.54563 -1.25338
LeftLeg  7.72233 11.1891 -3.85086
LeftFoot  2.15998 -0.873886 7.26403
LeftToes  -6.45774e-011 3.08606e-011 -5.1752e-012
158
root  -74.5374 41.033 -2.87001 -13.6566 -85.4781 3.66563
RightUpLeg  -5.60784 -16.6059 -11.5081
RightLeg  32.1224 -6.63646 -4.80664
RightFoot  -7.63434 -0.247986 6.12861
RightToes  1.16414e-010 0 -3.6325e-017
Spine  12.9184 0.0487097 -8.45693
Spine1  6.68963 -0.676569 -1.09628
HEad  -23.557 -2.76895 8.41793
LeftShoulder1  8.44316 -13.5683 -43.0002
LeftArm  -49.9258 21.9393 -26.2645
LeftForeArm  -12.6805 -39.3102 -9.90516
LeftHand  -0.244104 0.0205437 5.32207
RightShoulder  5.02374 8.76049 35.0023
RightArm  -10.3837 -24.9105 42.8222
RightForeArm  -8.72637 25.7075 5.95476
RightHand  -3.86116 10.9262 -27.3001
LeftUpLeg  -0.494248 4.34047 -1.4336
LeftLeg  7.94851 10.0746 -3.64838
LeftFoot  1.55837 -0.865789 7.56271
LeftToes  -6.45774e-011 3.08606e-011 -5.1752e-012
159
root  -75.0081 41.0613 -2.88745 -17.0597 -83.88 7.66833
RightUpLeg  -2.39337 -15.3492 -12.5237
RightLeg  20.4163 -5.89246 -2.50353
RightFoot  -6.45683 -0.314465 6.29862
RightToes  1.16414e-010 0 -3.6325e-017
Spine  11.9656 -0.213424 -9.66549
Spine1  6.91088 -1.45962 0.922347
HEad  -23.9997 -8.38588 10.4192
LeftShoulder1  8.18908 -13.3702 -42.1414
LeftArm  -49.7601 21.1086 -28.0942
LeftForeArm  -14.0531 -37.1056 -9.26883
LeftHand  -0.244104 0.0205437 5.32207
RightShoulder  4.8315 8.50366 34.2871
RightArm  -13.4373 -27.18 43.24
RightForeArm  -9.14489 24.3586 5.66748
RightHand  -4.03175 11.502 -27.521
LeftUpLeg  -0.455552 4.04213 -2.12298
LeftLeg  7.96335 9.09638 -3.82381
LeftFoot  1.00343 -0.829133 7.59764
LeftToes  -6.45774e-011 3.08606e-011 -5.1752e-012
160
root  -75.4777 41.1256 -2.86289 -20.0711 -82.6868 11.5468
RightUpLeg  -0.00913341 -13.0448 -13.2427
RightLeg  11.1375 -5.39196 -0.516216
RightFoot  -1.59622 -0.500003 5.81132
RightToes  1.16414e-010 0 -3.6325e-017
Spine  10.4611 -0.487804 -9.54832
Spine1  7.06634 -1.72584 1.68981
HEad  -24.2881 -13.1005 13.0194
LeftShoulder1  7.85011 -13.166 -40.7969
LeftArm  -49.7707 20.0407 -29.0836
LeftForeArm  -14.8494 -34.2196 -8.44184
LeftHand  -0.244104 0.0205437 5.32207
RightShoulder  4.64304 8.18841 33.7642
RightArm  -17.3625 -29.2531 42.6622
RightForeArm  -8.18161 22.5664 5.29782
RightHand  -4.1932 12.0221 -27.7532
LeftUpLeg  -0.121294 3.68761 -2.82382
LeftLeg  6.94589 8.49029 -4.28105
LeftFoot  0.901263 -0.813699 7.52391
LeftToes  -6.45774e-011 3.08606e-011 -5.1752e-012
161
root  -75.8936 41.2495 -2.77657 -20.6825 -82.6993 12.8509
RightUpLeg  0.843367 -10.3013 -12.8397
RightLeg  7.18398 -6.36895 -0.0593735
RightFoot  2.60912 -0.494952 4.16924
RightToes  1.16414e-010 0 -3.6325e-017
Spine  9.03148 -0.656717 -7.43679
Spine1  7.19467 -1.43776 1.15591
HEad  -23.432 -16.4976 14.0989
LeftShoulder1  7.56207 -13.0432 -39.4822
LeftArm  -50.3328 19.3526 -28.7903
LeftForeArm  -14.9836 -31.721 -7.75266
LeftHand  -0.244104 0.0205437 5.32207
RightShoulder  4.43279 7.86614 33.0448
RightArm  -21.7148 -30.4375 40.8836
RightForeArm  -7.24313 20.108 4.96318
RightHand  -4.52917 12.9919 -28.3599
LeftUpLeg  0.814984 3.27548 -3.06461
LeftLeg  4.96545 8.7479 -4.62327
LeftFoot  1.29469 -0.866718 7.74458
LeftToes  -6.45774e-011 3.08606e-011 -5.1752e-012
162
root  -76.2214 41.3668 -2.67196 -20.166 -83.8423 12.7739
RightUpLeg  1.02818 -9.62779 -12.0959
RightLeg  6.29784 -6.53763 -0.209957
RightFoot  3.86405 -0.384042 3.06231
RightToes  1.16414e-010 0 -3.6325e-017
Spine  8.2468 -0.681142 -4.6334
Spine1  7.1288 -1.02721 0.307833
HEad  -22.4583 -18.2453 13.8335
LeftShoulder1  7.3188 -12.9451 -38.331
LeftArm  -51.1431 19.4166 -27.1499
LeftForeArm  -15.287 -29.8176 -7.26782
LeftHand  -0.244104 0.0205437 5.32207
RightShoulder  4.19204 7.5587 31.9506
RightArm  -25.7801 -30.3108 37.8702
RightForeArm  -7.85045 17.5087 4.49721
RightHand  -4.89468 14.0707 -28.9209
LeftUpLeg  1.56031 3.14807 -2.8696
LeftLeg  3.60935 9.73518 -4.59607
LeftFoot  1.40313 -0.87627 7.75659
LeftToes  -6.45774e-011 3.08606e-011 -5.1752e-012
163
root  -76.4754 41.4332 -2.59757 -19.7434 -85.353 12.5737
RightUpLeg  1.84254 -9.65559 -11.9535
RightLeg  4.58724 -6.0224 0.483825
RightFoot  4.21088 -0.462181 3.58754
RightToes  1.16414e-010 0 -3.6325e-017
Spine  8.29 -0.633845 -2.68569
Spine1  6.76644 -0.909108 0.343847
HEad  -22.2862 -18.7343 13.2293
LeftShoulder1  6.98049 -12.754 -36.8279
LeftArm  -51.9258 20.1581 -24.7268
LeftForeArm  -15.4887 -28.2047 -6.87083
LeftHand  -0.244104 0.0205437 5.32207
RightShoulder  3.84414 7.09993 30.2875
RightArm  -29.4278 -29.1736 34.1782
RightForeArm  -9.7257 15.8321 3.84283
RightHand  -4.96388 14.3243 -28.9473
LeftUpLeg  1.90694 3.34595 -2.44628
LeftLeg  3.35407 10.8634 -4.42753
LeftFoot  0.978257 -0.791808 7.26928
LeftToes  -6.45774e-011 3.08606e-011 -5.1752e-012
164
root  -76.6932 41.4539 -2.58437 -22.7256 -86.6412 15.5443
RightUpLeg  2.82716 -10.0914 -12.2783
RightLeg  2.65146 -4.39018 1.47405
RightFoot  4.95982 -0.617717 4.55036
RightToes  1.16414e-010 0 -3.6325e-017
Spine  8.87584 -0.56141 -2.05321
Spine1  6.34171 -1.05084 1.25487
HEad  -22.7614 -18.7429 13.145
LeftShoulder1  6.38567 -12.3108 -34.3195
LeftArm  -52.6142 21.092 -22.0885
LeftForeArm  -14.6412 -26.7272 -6.47531
LeftHand  -0.244104 0.0205437 5.32207
RightShoulder  3.36628 6.33134 28.2163
RightArm  -32.4265 -27.478 30.2882
RightForeArm  -11.0783 15.4699 3.31197
RightHand  -4.89186 14.1065 -28.8529
LeftUpLeg  2.36808 3.63491 -2.11207
LeftLeg  3.33925 11.7488 -4.42841
LeftFoot  0.459131 -0.714636 6.88112
LeftToes  -6.45774e-011 3.08606e-011 -5.1752e-012
165
root  -76.8959 41.4683 -2.62893 -33.954 -87.6264 26.7484
RightUpLeg  3.00665 -10.1841 -12.3297
RightLeg  2.32421 -3.07682 1.63023
RightFoot  5.23888 -0.640257 4.63635
RightToes  1.16414e-010 0 -3.6325e-017
Spine  9.38287 -0.522501 -1.96476
Spine1  6.16897 -1.16515 1.94171
HEad  -23.2947 -18.7342 13.7901
LeftShoulder1  5.5385 -11.5396 -30.7612
LeftArm  -52.3001 21.5953 -18.9992
LeftForeArm  -13.3549 -24.87 -5.97788
LeftHand  -0.244104 0.0205437 5.32207
RightShoulder  2.87108 5.37358 26.2738
RightArm  -33.616 -25.3028 26.2106
RightForeArm  -10.903 15.3631 3.02895
RightHand  -5.15786 14.8684 -29.2471
LeftUpLeg  2.96465 3.78958 -2.01461
LeftLeg  2.98982 12.5777 -4.58334
LeftFoot  0.165163 -0.697733 6.90678
LeftToes  -6.45774e-011 3.08606e-011 -5.1752e-012
166
root  -77.0952 41.4891 -2.70778 -58.2426 -88.2967 51.3932
RightUpLeg  2.39167 -9.82138 -11.9914
RightLeg  2.89507 -2.75878 1.16462
RightFoot  4.62662 -0.567249 4.26857
RightToes  1.16414e-010 0 -3.6325e-017
Spine  9.19076 -0.546581 -1.65519
Spine1  6.2237 -1.09404 1.70262
HEad  -23.4576 -18.8304 14.5778
LeftShoulder1  4.63189 -10.6068 -26.6892
LeftArm  -48.9382 21.3983 -15.1327
LeftForeArm  -13.5572 -22.1219 -4.97477
LeftHand  -0.244104 0.0205437 5.32207
RightShoulder  2.47276 4.53622 24.6163
RightArm  -32.112 -22.7449 21.8163
RightForeArm  -10.4424 14.2101 2.77322
RightHand  -5.60724 16.1392 -29.8812
LeftUpLeg  3.06466 3.76269 -2.06767
LeftLeg  2.72048 13.58 -4.65044
LeftFoot  -0.0779758 -0.675298 6.8435
LeftToes  -6.45774e-011 3.08606e-011 -5.1752e-012
167
root  -77.3056 41.5154 -2.79175 -94.5415 -88.5426 88.4306
RightUpLeg  1.85349 -9.62011 -11.6996
RightLeg  2.5365 -2.33961 1.09266
RightFoot  4.27643 -0.555281 4.25964
RightToes  1.16414e-010 0 -3.6325e-017
Spine  8.26051 -0.559038 -0.974471
Spine1  6.20346 -0.892082 1.04898
HEad  -23.0163 -19.0661 14.6647
LeftShoulder1  3.81674 -9.73979 -22.4969
LeftArm  -42.8297 21.0923 -11.4071
LeftForeArm  -13.928 -19.6491 -3.30406
LeftHand  -0.244104 0.0205437 5.32207
RightShoulder  2.15902 3.94361 22.7531
RightArm  -28.6778 -20.0893 17.1101
RightForeArm  -10.6863 11.9945 2.65026
RightHand  -5.55201 15.8164 -30.0262
LeftUpLeg  2.67222 3.68126 -2.0424
LeftLeg  2.64591 14.6137 -4.5747
LeftFoot  -0.364214 -0.61576 6.42387
LeftToes  -6.45774e-011 3.08606e-011 -5.1752e-012
168
root  -77.527 41.5466 -2.87696 -131.722 -88.2591 126.256
RightUpLeg  1.71305 -9.75024 -11.5529
RightLeg  1.58759 -1.14284 1.55269
RightFoot  4.60282 -0.574136 4.32324
RightToes  1.16414e-010 0 -3.6325e-017
Spine  7.24863 -0.467194 -0.350061
Spine1  5.93983 -0.69738 0.800909
HEad  -22.0122 -19.3037 13.8193
LeftShoulder1  3.06728 -8.87476 -18.1761
LeftArm  -39.76 21.5263 -8.73871
LeftForeArm  -7.99086 -18.6595 -2.43213
LeftHand  -0.244104 0.0205437 5.32207
RightShoulder  1.85026 3.42508 20.3064
RightArm  -24.7026 -17.283 12.3062
RightForeArm  -10.1641 9.6534 2.87337
RightHand  -4.98375 14.0509 -29.4405
LeftUpLeg  2.49708 3.679 -1.84363
LeftLeg  2.42366 15.5525 -4.48199
LeftFoot  -0.619929 -0.555851 5.95854
LeftToes  -6.45774e-011 3.08606e-011 -5.1752e-012
169
root  -77.7345 41.5749 -2.985 -154.804 -87.4431 149.524
RightUpLeg  1.67674 -9.78347 -11.3105
RightLeg  1.40688 0.126178 1.84257
RightFoot  4.73625 -0.536937 4.02788
RightToes  1.16414e-010 0 -3.6325e-017
Spine  6.79739 -0.285066 -0.151287
Spine1  5.5506 -0.560071 1.05961
HEad  -20.937 -19.2623 12.5946
LeftShoulder1  2.35711 -7.84331 -13.7947
LeftArm  -35.7466 21.814 -6.1487
LeftForeArm  -1.68213 -17.4087 -1.56912
LeftHand  -0.244104 0.0205437 5.32207
RightShoulder  1.49547 2.73813 17.3502
RightArm  -21.2682 -14.2902 8.02069
RightForeArm  -7.67513 8.09237 3.29706
RightHand  -4.73443 13.4985 -28.8309
LeftUpLeg  2.85368 3.79867 -1.54305
LeftLeg  2.12253 16.4528 -4.42359
LeftFoot  -0.897063 -0.505396 5.58422
LeftToes  -6.45774e-011 3.08606e-011 -5.1752e-012
